<svg xmlns="http://www.w3.org/2000/svg" height="2048" preserveAspectRatio="none" style="display: block;" version="1.1" viewBox="0 0 2048 2048" width="2048">
<path d="M 1005.95 279.425 C 1203.98 270.404 1372.39 420.403 1388.51 617.649 C 1390.46 641.441 1389.84 665.252 1389.8 689.108 L 1389.71 785.214 L 1389.62 1096.24 L 1389.8 1312.86 C 1389.83 1365.97 1392.77 1425.8 1382.46 1477.35 C 1369.85 1538.19 1341.95 1594.83 1301.4 1641.91 C 1234.56 1719.78 1146.81 1761.27 1045.25 1768.91 C 949.837 1773.03 859.959 1745.25 787.197 1682.31 C 713.625 1619.43 667.931 1529.99 660.098 1433.53 C 658.438 1410.5 658.917 1387.68 658.966 1364.61 L 659.036 1270.66 L 659.078 952.652 L 658.912 737.158 C 658.905 683.953 655.845 624.449 666.195 573.016 C 678.81 510.8 707.41 452.941 749.179 405.136 C 816.478 327.693 904.188 286.571 1005.95 279.425 z" fill="rgb(244,239,231)" transform="translate(0,0)"></path>
<path d="M 754.323 1240.4 C 785.979 1278.32 807.412 1298.44 847.694 1327.03 L 853.15 1329.81 C 892.304 1354.28 924.415 1368.22 970.285 1377.1 C 969.961 1399.51 967.773 1420.41 983.77 1438.47 C 993.733 1449.79 1007.93 1456.49 1023 1457 C 1038.08 1457.33 1052.63 1451.46 1063.25 1440.76 C 1081.56 1422.33 1079.14 1400.81 1079.02 1377.1 C 1122.89 1370.04 1164.77 1353.78 1201.91 1329.39 C 1242.87 1302.18 1263.95 1280.51 1294.89 1243.08 L 1294.96 1354.66 C 1294.98 1377.44 1295.73 1404.36 1293.71 1426.54 C 1288.21 1489.68 1260.67 1548.87 1215.9 1593.74 C 1164.87 1644.88 1095.54 1673.54 1023.3 1673.37 C 951.977 1672.87 883.709 1644.37 833.211 1594.01 C 788.327 1548.9 760.753 1489.43 755.323 1426.03 C 753.336 1403.8 754.12 1374.41 754.154 1351.48 L 754.323 1240.4 z" fill="rgb(10,10,10)" transform="translate(0,0)"></path>
<path d="M 847.694 1327.03 L 853.15 1329.81 C 892.304 1354.28 924.415 1368.22 970.285 1377.1 C 969.961 1399.51 967.773 1420.41 983.77 1438.47 C 993.733 1449.79 1007.93 1456.49 1023 1457 C 1038.08 1457.33 1052.63 1451.46 1063.25 1440.76 C 1081.56 1422.33 1079.14 1400.81 1079.02 1377.1 C 1122.89 1370.04 1164.77 1353.78 1201.91 1329.39 C 1202.21 1408.61 1210.33 1468.34 1148.33 1531.54 C 1116.58 1563.9 1069.32 1582.19 1024.06 1582.1 C 976.954 1581.98 931.891 1562.85 899.078 1529.05 C 839.125 1467.91 847.254 1404.93 847.694 1327.03 z" fill="rgb(245,177,51)" transform="translate(0,0)"></path>
<path d="M 754.191 802.697 L 754.184 694.899 C 754.171 672.3 753.384 643.354 755.536 621.381 C 761.659 558.739 789.268 500.145 833.678 455.545 C 884.661 404.331 953.931 375.514 1026.2 375.458 C 1098 376.334 1166.5 405.73 1216.61 457.165 C 1260.85 502.341 1288.12 561.421 1293.8 624.398 C 1295.82 646.674 1294.99 676.578 1294.98 699.397 L 1294.87 810.619 C 1265.52 772.024 1240.79 750.159 1201.89 721.873 L 1196.82 718.587 C 1159.64 695.883 1122.52 678.09 1079.11 670.398 C 1079.31 646.587 1081.63 626.311 1062.98 607.811 C 1052.42 597.508 1038.12 591.964 1023.37 592.463 C 1008.29 592.931 994.06 599.58 984.027 610.851 C 966.909 630.055 970.017 650.012 970.069 674.066 C 926.967 682.78 885.109 695.95 847.617 719.606 C 805.433 746.697 785.711 764.631 754.191 802.697 z" fill="rgb(10,10,10)" transform="translate(0,0)"></path>
<path d="M 847.617 719.606 C 847.403 641.535 838.945 580.82 899.824 519.232 C 933.114 486.123 978.093 467.441 1025.04 467.223 C 1070.65 467.1 1118.06 487.408 1149.76 519.885 C 1210.96 582.593 1202.06 642.978 1201.89 721.873 L 1196.82 718.587 C 1159.64 695.883 1122.52 678.09 1079.11 670.398 C 1079.31 646.587 1081.63 626.311 1062.98 607.811 C 1052.42 597.508 1038.12 591.964 1023.37 592.463 C 1008.29 592.931 994.06 599.58 984.027 610.851 C 966.909 630.055 970.017 650.012 970.069 674.066 C 926.967 682.78 885.109 695.95 847.617 719.606 z" fill="rgb(245,177,51)" transform="translate(0,0)"></path>
<path d="M 853.037 1218.02 C 836.894 1203.88 823.144 1191.81 810.104 1174.54 C 686.637 1011.03 788.05 811.596 975.066 770.223 L 975.396 860.708 C 953.931 867.292 938.457 873.735 920.243 887.272 C 864.356 928.807 838.454 999.555 858.978 1066.53 C 873 1111.73 904.397 1149.52 946.268 1171.58 C 954.03 1175.62 962.143 1178.95 970.15 1182.49 C 970.12 1246.7 971.236 1313.16 970.285 1377.1 C 924.415 1368.22 892.304 1354.28 853.15 1329.81 L 853.037 1218.02 z" fill="rgb(10,10,10)" transform="translate(0,0)"></path>
<path d="M 1079.11 670.398 C 1122.52 678.09 1159.64 695.883 1196.82 718.587 L 1196.76 829.336 C 1239.17 862.275 1273.53 919.153 1285.12 971.379 C 1299.48 1036.29 1287.1 1104.24 1250.75 1159.91 C 1210.89 1221.92 1150.68 1261.55 1079.02 1277.21 L 1078.98 1183.11 C 1086.4 1181.12 1093.66 1178.57 1100.69 1175.47 C 1141.06 1157.79 1172.61 1124.61 1188.24 1083.42 C 1222.87 991.909 1167.63 897.903 1079.04 865.385 L 1079.11 670.398 z" fill="rgb(10,10,10)" transform="translate(0,0)"></path>
<path d="M 1018.73 947.621 C 1060.28 943.48 1097.38 973.69 1101.74 1015.22 C 1106.1 1056.76 1076.08 1094.01 1034.57 1098.59 C 992.751 1103.21 955.156 1072.92 950.764 1031.07 C 946.372 989.226 976.858 951.792 1018.73 947.621 z" fill="rgb(10,10,10)" transform="translate(0,0)"></path>
<metadata><recraft-signature>{"signed_by": "recraft", "signature_b64": "jXOfu7Nq0DU0CEyun/FqxLJsQXtC56Us8OMcU4UaDNps04Roc25JKGOGFkSmzv/8X7vg+CpmCN1hju4+KDx6BA==", "signing_algo": "Ed25519", "generation_timestamp": 1776149892, "identifier": "9e5b5ede-b694-418d-82af-b32301d6442a"}</recraft-signature></metadata></svg>